<svg width="41" height="40" xmlns="http://www.w3.org/2000/svg"><g fill="none" fill-rule="evenodd"><path d="M1 0h40v40H1z"/><path d="M1.706 39.605a.706.706 0 110-1.412H3.48L2.488 15.27l-.001-.03c0-.547.15-1.063.41-1.496.263-.433.637-.79 1.096-1.01.306-.146.648-.229 1.005-.229h3.836c.14 0 .271.04.38.112v-2.342c0-.03.003-.067.008-.096a2.64 2.64 0 01.817-1.582 2.449 2.449 0 011.667-.657h18.59a2.444 2.444 0 011.658.655c.436.402.735.955.824 1.575.004.03.007.072.007.1v2.347a.702.702 0 01.382-.112h3.835c.356 0 .7.083 1.005.23.306.146.574.354.797.603.444.5.709 1.172.709 1.902v.03l-.994 22.923h1.775c.358 0 .653.267.7.61L41 38.9c0 .39-.316.706-.706.706zm7.128-25.688H4.998c-.139 0-.27.03-.396.091-.126.06-.246.15-.35.268-.181.203-.312.484-.346.802l-.008.148.996 22.967h4.32V13.805a.702.702 0 01-.38.112zm21.462-4.565h-18.59a1.035 1.035 0 00-.709.282c-.195.18-.337.438-.377.737l.006-.035v27.857h20.748l.011-27.805-.004-.017a1.242 1.242 0 00-.383-.737 1.037 1.037 0 00-.702-.282zm2.489 4.453v24.388h4.321l.995-22.967-.008-.156a1.481 1.481 0 00-.128-.463l-.072-.134a1.192 1.192 0 00-.495-.465.906.906 0 00-.396-.091h-3.835a.703.703 0 01-.382-.112zm-4.1 19.841a.707.707 0 010 1.412h-15.37a.706.706 0 110-1.412zm0-4.228a.707.707 0 010 1.412h-15.37a.706.706 0 110-1.412zm0-4.227a.706.706 0 010 1.41h-15.37a.706.706 0 110-1.41zm0-4.23a.706.706 0 010 1.413h-15.37a.706.706 0 110-1.412zm0-4.227a.706.706 0 010 1.411h-15.37a.705.705 0 110-1.41zm0-4.229a.707.707 0 010 1.412h-15.37a.706.706 0 110-1.412zM3.943 0l1.352.023.142 1.742 1.787-.362.413 1.344-1.614.673.896 1.588-1.15.807-1.14-1.327-1.232 1.345-1.123-.845.91-1.494-1.658-.756.454-1.33 1.702.404L3.89 0h.053zm8.206 0l1.35.023.143 1.742 1.788-.362.412 1.344-1.614.673.897 1.588-1.15.807-1.14-1.327L11.6 5.833l-1.123-.845.909-1.494-1.658-.756.455-1.33 1.702.404L12.094 0h.054zm8.203 0l1.353.023.141 1.742 1.788-.362.412 1.344-1.613.673.896 1.588-1.15.807-1.139-1.327-1.234 1.345-1.122-.845.91-1.494-1.659-.756.455-1.33 1.702.404L20.299 0h.052zm8.205 0l1.352.023.142 1.742 1.788-.362.413 1.344-1.615.673.897 1.588-1.15.807-1.14-1.327-1.232 1.345-1.124-.845.91-1.494-1.658-.756.454-1.33 1.703.404L28.503 0h.053zm8.205 0l1.353.023.141 1.742 1.788-.362.412 1.344-1.614.673.897 1.588-1.15.807-1.14-1.327-1.232 1.345-1.123-.845.909-1.494-1.659-.756.456-1.33 1.702.404L36.709 0h.052z" fill="#131717"/></g></svg>