<svg width="24" height="24" xmlns="http://www.w3.org/2000/svg" xmlns:xlink="http://www.w3.org/1999/xlink"><defs><path d="M4.833 13.543c.031 0 .06.004.089.012.753.074 1.042.47 1.259.766.186.256.29.397.649.397.36 0 .462-.141.65-.397.24-.328.568-.778 1.52-.778.952 0 1.281.45 1.521.778.187.256.29.397.65.397.359 0 .462-.141.648-.397.217-.296.506-.691 1.26-.766a.318.318 0 01.088-.012h.174c.03 0 .06.004.088.012.754.075 1.042.47 1.26.766.186.256.289.397.648.397.36 0 .462-.141.649-.397.24-.328.57-.778 1.522-.778a.316.316 0 110 .63c-.632 0-.8.23-1.012.52-.213.292-.479.655-1.16.655-.68 0-.945-.363-1.158-.655-.202-.276-.364-.498-.924-.518-.56.02-.722.241-.924.518-.214.292-.48.655-1.16.655-.68 0-.946-.363-1.159-.655-.212-.29-.38-.52-1.011-.52-.63 0-.798.23-1.01.52-.214.292-.48.655-1.16.655-.681 0-.947-.363-1.16-.655-.202-.277-.364-.498-.923-.518-.56.02-.722.241-.924.518-.214.292-.48.655-1.16.655-.68 0-.946-.363-1.159-.655-.212-.29-.38-.52-1.011-.52a.316.316 0 110-.63c.952 0 1.281.45 1.522.778.186.256.29.397.648.397.36 0 .462-.141.65-.397.216-.296.505-.692 1.259-.766a.316.316 0 01.088-.012h.173zm0-2.262c.031 0 .06.005.089.013.753.074 1.042.47 1.259.766.186.255.29.396.649.396.36 0 .462-.14.65-.396.24-.329.568-.779 1.52-.779.952 0 1.281.45 1.521.779.187.255.29.396.65.396.359 0 .462-.14.648-.396.217-.297.506-.692 1.26-.766a.318.318 0 01.088-.013h.174c.03 0 .06.005.088.013.754.074 1.042.47 1.26.766.186.256.289.396.648.396.36 0 .462-.14.649-.396.24-.329.57-.779 1.522-.779a.316.316 0 110 .631c-.632 0-.8.23-1.012.52-.213.292-.479.655-1.16.655-.68 0-.945-.363-1.158-.655-.202-.277-.364-.498-.924-.519-.56.02-.722.242-.924.518-.214.293-.48.656-1.16.656-.68 0-.946-.363-1.159-.655-.212-.29-.38-.52-1.011-.52-.63 0-.798.23-1.01.52-.214.291-.48.655-1.16.655-.681 0-.947-.364-1.16-.656-.202-.276-.364-.497-.923-.518-.56.02-.722.242-.924.518-.214.293-.48.656-1.16.656-.68 0-.946-.363-1.159-.655-.212-.29-.38-.52-1.011-.52a.316.316 0 110-.63c.952 0 1.281.45 1.522.778.186.256.29.396.648.396.36 0 .462-.14.65-.396.216-.297.505-.692 1.259-.766a.316.316 0 01.088-.013h.173zM12.357.62c.868 0 1.573.704 1.573 1.569a.316.316 0 01-.632 0 .94.94 0 00-1.88 0v7.973c.176-.055.267-.18.401-.364.217-.296.506-.691 1.26-.766a.316.316 0 01.088-.012h.174c.03 0 .06.004.088.012.753.075 1.042.47 1.26.766.186.256.289.396.648.396.36 0 .462-.14.649-.396.24-.328.57-.778 1.522-.778a.316.316 0 110 .63c-.632 0-.8.23-1.012.52-.213.292-.479.655-1.16.655-.68 0-.945-.363-1.158-.655-.202-.276-.364-.497-.924-.518-.56.02-.722.242-.924.518-.214.292-.48.655-1.16.655-.68 0-.946-.363-1.159-.655-.212-.29-.38-.52-1.011-.52-.63 0-.799.23-1.01.52-.214.292-.48.655-1.16.655-.681 0-.947-.363-1.16-.655-.202-.276-.364-.497-.923-.518-.51.019-.69.203-.87.444l-.054.074c-.214.292-.48.655-1.16.655-.68 0-.945-.363-1.159-.655-.212-.29-.38-.52-1.011-.52a.316.316 0 110-.63c.952 0 1.281.45 1.522.778.186.256.29.396.648.396.36 0 .463-.14.65-.396.216-.296.505-.691 1.259-.766a.317.317 0 01.088-.012h.173c.031 0 .06.004.089.012.753.075 1.042.47 1.259.766.134.185.226.31.402.364V2.19a1.573 1.573 0 013.145 0 .316.316 0 01-.632 0 .94.94 0 00-1.88 0l-.001 1.59h3.57v-1.59c0-.865.706-1.57 1.572-1.57zm-1.572 7.95h-3.57v1.525c.096-.068.17-.168.264-.297.24-.328.569-.778 1.52-.778.953 0 1.282.45 1.522.778.095.13.168.23.264.297V8.57zm0-1.386h-3.57v.757h3.57v-.757zm0-1.386h-3.57v.755h3.57v-.755zm0-1.388h-3.57v.758h3.57V4.41z" id="a"/></defs><g transform="translate(3 5)" fill="none" fill-rule="evenodd"><mask id="b" fill="#fff"><use xlink:href="#a"/></mask><use fill="#131717" xlink:href="#a"/><path fill="#131717" mask="url(#b)" d="M-3-5h24v24H-3z"/></g></svg>