<svg width="24" height="24" xmlns="http://www.w3.org/2000/svg"><g fill="#131717" fill-rule="evenodd"><path d="M15.704 17.168a5.181 5.181 0 01-5.176-5.174 5.181 5.181 0 015.176-5.175c.952 0 1.846.259 2.613.71l.016.024.023-.002a5.177 5.177 0 012.524 4.443 5.181 5.181 0 01-5.176 5.174zm-5.39-7.06a5.703 5.703 0 002.058 6.517 4.14 4.14 0 01-3.253 1.58A4.142 4.142 0 014.98 14.07a4.142 4.142 0 015.333-3.96zm-1.195 9.136a5.181 5.181 0 01-5.177-5.175 5.181 5.181 0 016.807-4.911 5.679 5.679 0 00-.234.454 4.676 4.676 0 00-6.068 4.457 4.677 4.677 0 004.672 4.67 4.674 4.674 0 003.7-1.82c.148.085.298.165.453.238a5.163 5.163 0 01-4.153 2.087zM19.422 5.366l1.106.483.296.621-3.096-1.565.676-.13 1.018.59zm-.963 1.399l-.854-1.324 1.213.613-.359.71zm2.007.122l-1.518.093.347-.685 1.171.592zm-1.247.611l2.61-.16-.904-1.899-1.248-.543-1.177-.683-2.067.398 1.33 2.058a5.708 5.708 0 00-6.716 2.026 5.716 5.716 0 00-7.637 5.374 5.716 5.716 0 005.709 5.708 5.695 5.695 0 004.66-2.41c.601.217 1.25.335 1.925.335 3.149 0 5.71-2.56 5.71-5.708a5.7 5.7 0 00-2.195-4.496z"/><path d="M15.704 16.13c-.415 0-.816-.062-1.194-.176a5.677 5.677 0 00.319-1.885 5.689 5.689 0 00-2.375-4.632 4.133 4.133 0 013.25-1.58 4.142 4.142 0 014.138 4.137 4.142 4.142 0 01-4.138 4.136m-4.138-4.136c0-.395.056-.776.16-1.137a4.134 4.134 0 011.373 4.347 4.129 4.129 0 01-1.533-3.21m2.444 3.772a4.112 4.112 0 01-.452-.237 4.668 4.668 0 00-1.641-5.2c.069-.156.147-.307.234-.453a5.157 5.157 0 012.144 4.193c0 .584-.096 1.154-.285 1.697m1.694-8.443a4.676 4.676 0 00-4.672 4.67 4.676 4.676 0 004.672 4.67 4.676 4.676 0 004.672-4.67 4.676 4.676 0 00-4.672-4.67M5.807 7.986a.267.267 0 00.483-.229l-.616-1.293a.267.267 0 00-.482.229l.615 1.293zM9.214 7.583h.005a.267.267 0 00.262-.272L9.46 6.147a.267.267 0 10-.534.01l.021 1.164a.267.267 0 00.267.262M3.577 10.047a.267.267 0 00.133-.498l-1.147-.663a.267.267 0 10-.267.462l1.147.663a.266.266 0 00.134.036"/></g></svg>