<svg width="24" height="24" xmlns="http://www.w3.org/2000/svg"><g fill="none" fill-rule="evenodd"><path d="M0 0h24v24H0z"/><g fill="#131717" fill-rule="nonzero"><path d="M17.746 11.319v6.365H6.254v-6.275a.19.19 0 00-.38 0v6.465a.19.19 0 00.19.19h11.87a.19.19 0 00.19-.19V11.32a.19.19 0 00-.38 0h.002z"/><path d="M19.694 12.235L12.563 5.18a.625.625 0 00-.875-.005l-7.38 7.152a.266.266 0 10.37.38l7.38-7.15a.091.091 0 01.065-.026.09.09 0 01.066.027l7.131 7.054a.266.266 0 00.374-.38v.002zM13.32 13.257v-.19h-2.64a.19.19 0 00-.19.19v4.617a.19.19 0 00.19.19h2.64a.19.19 0 00.19-.19v-4.617a.19.19 0 00-.19-.19v.19h-.19v4.427h-2.26v-4.237h2.45v-.19z"/><path d="M12.54 14.906a.33.33 0 00-.33.33v.66a.33.33 0 00.66 0v-.66a.33.33 0 00-.33-.33zM6.065 13.447h11.87a.19.19 0 100-.38H6.065a.19.19 0 000 .38M6.144 11.469h11.791a.19.19 0 100-.38H6.144a.19.19 0 000 .38M3.266 18.14h17.468a.266.266 0 100-.532H3.266a.266.266 0 000 .531M7.802 9.67h3.28a.19.19 0 100-.38h-3.28a.19.19 0 100 .38M12.918 9.67h3.479a.19.19 0 100-.38h-3.479a.19.19 0 100 .38M10.631 6.953h3.038a.19.19 0 100-.38h-3.038a.19.19 0 100 .38M6.065 15.246h4.616a.19.19 0 100-.38H6.065a.19.19 0 000 .38M13.32 15.246h4.615a.19.19 0 100-.38H13.32a.19.19 0 000 .38"/><path d="M12.614 10.398v-.19h-1.228a.113.113 0 01-.114-.114V8.866a.115.115 0 01.114-.114h1.228c.03 0 .06.012.08.033.022.022.034.05.034.08v1.229a.113.113 0 01-.114.114v.38a.494.494 0 00.494-.494V8.866a.494.494 0 00-.494-.494h-1.228a.494.494 0 00-.494.494v1.228c0 .273.22.494.494.494h1.228v-.19z"/></g></g></svg>