<svg width="24" height="24" xmlns="http://www.w3.org/2000/svg"><g fill="none" fill-rule="evenodd"><path d="M0 23.753h23.754V0H0z"/><path fill="#131717" d="M2.807 19.405h18.645v-.511H2.807z"/><g fill="#131717"><path d="M5.301 16.828a2.982 2.982 0 01-2.979-2.978 2.982 2.982 0 012.98-2.978v.511a2.47 2.47 0 00-2.468 2.467 2.47 2.47 0 003.604 2.19l.236.454c-.42.218-.895.334-1.373.334"/><path d="M4.858 18.236h.511v-5.458h-.511z"/><path d="M4.933 15.172l-1.181-1.18.361-.362 1.181 1.18zM8.635 16.627a2.213 2.213 0 01-2.211-2.21V6.796c0-1.219.992-2.21 2.21-2.21 1.22 0 2.212.991 2.212 2.21v4.502h-.512V6.796c0-.937-.762-1.699-1.7-1.699-.936 0-1.699.762-1.699 1.699v7.62a1.701 1.701 0 002.623 1.427l.278.429a2.203 2.203 0 01-1.201.355"/><path d="M8.379 18.236h.512V5.606h-.512z"/><path d="M8.816 15.171l-.362-.361 1.18-1.18.362.361z"/><path d="M8.454 15.172l-1.181-1.18.361-.362 1.182 1.18zM8.816 12.918l-.362-.361 1.18-1.18.362.361z"/><path d="M8.454 12.919l-1.181-1.18.361-.362 1.182 1.18zM8.816 10.665l-.362-.361 1.18-1.18.362.361z"/><path d="M8.454 10.666l-1.181-1.18.361-.362 1.182 1.18zM8.816 8.412l-.362-.361 1.18-1.18.362.361z"/><path d="M8.454 8.412l-1.181-1.18.361-.361 1.182 1.18zM18.768 16.493h.512V12.69h-.512zM16.873 17.894h-2.86V14.32H12.61v3.574H10.86V12.69h.511v4.693h.729v-3.574h2.425v3.574h2.349zM12.075 11.395h.512V9.459h-.512z"/><path d="M15.387 15.907h2.507v-2.235h-2.507v2.235zm.704-.704h1.098v-.827h-1.098v.827z"/><path d="M19.871 13.773l-4.802-4.8-4.802 4.8-.361-.362 5.163-5.162 5.164 5.162zM21.657 18.67l-.507-.07a.588.588 0 00-.58-.672h-.2l-.05-.195a1.166 1.166 0 00-2-.504l-.1.11-.144-.031a.91.91 0 00-1.093.753l-.506-.075a1.425 1.425 0 011.565-1.202 1.676 1.676 0 012.72.65 1.1 1.1 0 01.895 1.236"/></g></g></svg>