<svg width="24" height="24" xmlns="http://www.w3.org/2000/svg"><g fill="#131717" fill-rule="evenodd"><path d="M4.549 13.992a.596.596 0 00-.304.082.504.504 0 00-.241.32.469.469 0 00.069.367c1.628 2.455 3.706 4.126 6.01 4.832a8.374 8.374 0 003.502.317 8.034 8.034 0 003.116-1.056c1.558-.92 2.72-2.323 3.274-3.953.04-.12.03-.25-.03-.365a.546.546 0 00-.333-.27c-.3-.09-.618.059-.71.333a6.22 6.22 0 01-1.52 2.407.354.354 0 01-.595-.185l-1.024-5.36c-.07-.37-.286-1.497.427-1.704.354-.103.799.1 1.322.6.11.103.214.214.312.325a4.098 4.098 0 00-.017-.288c-.073-.772-.362-1.408-.753-1.66a.553.553 0 00-.508-.068c-.23.08-.372.182-.433.311-.094.198-.169.368-.235.517-.426.96-.578 1.111-1.727 1.08-.51-.015-.96.004-1.357.02-.88.037-1.515.063-1.896-.343-.252-.27-.336-.66-.27-1.268l.248-2.339c.012-.104.03-.214.047-.32a4.04 4.04 0 00.05-.383.351.351 0 01.044-.15.097.097 0 00.01-.03l.22-1.247a.1.1 0 00-.08-.114l-.474-.083a.099.099 0 00-.114.08l-.164.934a.353.353 0 01-.401.288l-1.326-.2a.353.353 0 01-.296-.41l.14-.792a.097.097 0 00-.017-.073.098.098 0 00-.064-.041l-.473-.083a.097.097 0 00-.073.016.098.098 0 00-.04.064l-.177 1.002a.354.354 0 01-.193.256.49.49 0 00-.14.107L4.538 8.432a.462.462 0 00-.097.392.429.429 0 00.208.317c.482.243 1.122.343 1.74.439.884.137 1.72.267 2.115.829.198.281.258.635.179 1.052l-.966 5.057a.354.354 0 01-.584.197 12.838 12.838 0 01-2.104-2.474.573.573 0 00-.48-.25m8.026 6.689a9.193 9.193 0 01-2.7-.41c-2.462-.755-4.672-2.525-6.392-5.118a1.17 1.17 0 01-.168-.917c.075-.324.278-.597.571-.77.586-.345 1.363-.172 1.732.386.472.711.983 1.347 1.526 1.897l.844-4.42c.064-.333-.03-.468-.062-.512-.223-.316-.946-.429-1.646-.538-.672-.104-1.368-.212-1.95-.506a1.135 1.135 0 01-.586-.827c-.065-.373.04-.747.281-1l2.817-2.967c.055-.058.114-.11.177-.155l.149-.846a.8.8 0 01.331-.52.8.8 0 01.602-.134l.473.083a.8.8 0 01.52.332c.124.176.171.39.134.602l-.077.434.627.095.105-.595a.8.8 0 01.331-.52.8.8 0 01.602-.134l.473.084c.438.077.73.495.654.933l-.22 1.247a.815.815 0 01-.049.17c-.011.128-.033.258-.053.384-.017.1-.032.196-.041.281l-.25 2.34c-.038.363-.01.608.084.708.16.17.711.147 1.35.12.409-.016.872-.035 1.407-.02.338.009.627.011.728-.055.09-.06.187-.277.332-.605.068-.153.145-.326.242-.531.145-.306.427-.534.84-.678a1.27 1.27 0 011.123.142c.579.371.98 1.19 1.075 2.188a4.78 4.78 0 01-.094 1.49.354.354 0 01-.681.032 2.447 2.447 0 00-.049-.134c-.164-.415-.978-1.22-1.273-1.275-.025.074-.068.304.044.888l.89 4.659a5.43 5.43 0 00.884-1.615c.212-.632.923-.984 1.585-.783.333.1.602.322.757.622.148.286.173.611.071.915-.608 1.791-1.881 3.33-3.585 4.336-1.04.613-2.18 1-3.389 1.149-.364.045-.73.068-1.096.068"/><path d="M9.43 17.461c.393.203.798.369 1.206.494a6.478 6.478 0 002.71.245 6.19 6.19 0 001.757-.486l-.875-2.571c-.221-.65-.458-.734-.64-.734h-2.73c-.182 0-.419.083-.64.733l-.789 2.32zm3.132 1.494a7.26 7.26 0 01-2.134-.324 8.118 8.118 0 01-1.603-.693.353.353 0 01-.161-.422l.885-2.601c.102-.3.412-1.213 1.309-1.213h2.73c.897 0 1.207.913 1.31 1.213l.976 2.87a.353.353 0 01-.176.428c-.71.359-1.472.59-2.266.688a7.09 7.09 0 01-.87.054zM7.493 7.283c.014.009.052.009.067 0a.084.084 0 00-.067 0m.033.697c-.367 0-.666-.313-.666-.697 0-.385.299-.698.666-.698.368 0 .667.313.667.698 0 .384-.3.697-.667.697"/></g></svg>