<svg width="24" height="24" xmlns="http://www.w3.org/2000/svg"><path d="M16.151 18.272c.125 0 .226.101.226.226 0 .567-.711 1.002-1.61 1.002-.607 0-1.143-.2-1.348-.522-.275.322-.811.522-1.419.522-.607 0-1.144-.2-1.348-.522-.275.322-.812.522-1.42.522-.607 0-1.143-.2-1.348-.522-.275.322-.811.522-1.419.522-.607 0-1.144-.2-1.348-.522-.275.322-.812.522-1.42.522-.898 0-1.608-.435-1.608-1.002a.225.225 0 01.442-.06l.008.06c0 .274.517.551 1.159.551.596 0 1.084-.24 1.15-.493l.008-.058a.225.225 0 01.443-.06l.008.06c0 .274.516.551 1.158.551.596 0 1.084-.239 1.15-.493l.008-.058a.225.225 0 01.443-.06l.008.06c0 .274.517.551 1.159.551.596 0 1.084-.239 1.15-.493l.008-.058a.225.225 0 01.443-.06l.008.06c0 .274.516.551 1.158.551.596 0 1.084-.239 1.15-.493l.008-.058a.225.225 0 01.443-.06l.008.06c0 .274.517.551 1.158.551.597 0 1.084-.239 1.151-.493l.008-.058c0-.125.1-.226.225-.226zm5.535-1.726c.125 0 .225.1.225.225 0 .568-.71 1.003-1.609 1.003-.607 0-1.143-.2-1.348-.523-.275.322-.812.523-1.419.523s-1.144-.2-1.348-.523c-.275.322-.812.523-1.42.523-.898 0-1.609-.435-1.609-1.003a.225.225 0 01.443-.06l.008.06c0 .274.517.552 1.158.552.597 0 1.084-.24 1.151-.493l.008-.059a.225.225 0 01.443-.06l.008.06c0 .274.516.552 1.158.552.596 0 1.084-.24 1.15-.493l.009-.059a.225.225 0 01.442-.06l.008.06c0 .274.516.552 1.158.552.596 0 1.084-.24 1.15-.493l.009-.059c0-.124.1-.225.225-.225zm-10.47-1.26c.125 0 .226.1.226.225 0 .567-.71 1.002-1.61 1.002-.606 0-1.143-.2-1.347-.523-.275.323-.812.523-1.42.523-.607 0-1.144-.2-1.348-.522-.275.322-.812.522-1.42.522-.898 0-1.608-.435-1.608-1.002a.225.225 0 01.442-.06l.009.06c0 .274.516.551 1.158.551.596 0 1.084-.24 1.15-.493l.008-.058a.225.225 0 01.443-.06l.008.06c0 .274.517.551 1.159.551.596 0 1.083-.24 1.15-.493l.008-.058a.225.225 0 01.442-.06l.008.06c0 .274.517.551 1.159.551.596 0 1.084-.24 1.15-.493l.008-.058c0-.125.101-.226.226-.226zm8.303-1.74c.125 0 .225.1.225.225 0 .568-.71 1.003-1.609 1.003-.607 0-1.144-.2-1.348-.523-.275.323-.812.523-1.42.523-.607 0-1.143-.2-1.347-.522-.276.322-.812.522-1.42.522-.607 0-1.144-.2-1.348-.523-.275.323-.812.523-1.42.523-.607 0-1.143-.2-1.347-.523-.275.322-.812.523-1.42.523-.898 0-1.609-.435-1.609-1.003a.225.225 0 01.443-.06l.008.06c0 .274.517.552 1.159.552.596 0 1.083-.24 1.15-.493l.008-.059a.225.225 0 01.442-.06l.008.06c0 .274.517.552 1.159.552.596 0 1.084-.24 1.15-.493l.008-.059a.225.225 0 01.443-.06l.008.06c0 .274.516.552 1.158.552.596 0 1.084-.24 1.151-.493l.008-.059a.225.225 0 01.442-.06l.008.06c0 .274.517.552 1.159.552.596 0 1.084-.24 1.15-.493l.008-.059a.225.225 0 01.443-.06l.008.06c0 .274.516.552 1.158.552.596 0 1.084-.24 1.15-.493l.009-.059c0-.124.1-.225.225-.225zm-7.234-7.293a4.902 4.902 0 014.55 6.714.225.225 0 01-.42-.167 4.451 4.451 0 00-4.13-6.096 4.452 4.452 0 00-4.14 6.07.225.225 0 01-.42.166 4.903 4.903 0 014.56-6.687zM6.773 10.98a.225.225 0 01.111.42l-.057.023-.054.007H5.771a.225.225 0 01-.111-.42l.057-.024.054-.006h1.002zm12.027 0a.225.225 0 01.11.42l-.057.023-.053.007h-1.003a.225.225 0 01-.11-.42l.057-.024.053-.006H18.8zm-.686-3.231a.224.224 0 01.03.216l-.027.053-.045.047-.798.607a.225.225 0 01-.346-.259l.028-.053.045-.046.797-.608c.1-.075.24-.056.316.043zM6.791 7.66l.062.014.057.031.797.608a.226.226 0 01.043.316.223.223 0 01-.2.086l-.06-.013-.056-.03-.797-.608a.225.225 0 01.154-.404zM9.109 5.33l.048.03.048.054.536.847a.225.225 0 01-.07.311.223.223 0 01-.217.012l-.051-.033-.043-.049-.536-.846a.225.225 0 01.285-.326zm6.65-.01l.055.025.045.036c.038.042.06.097.059.156l-.008.06-.026.059-.536.846a.225.225 0 01-.311.07.223.223 0 01-.104-.192l.008-.06.026-.059.536-.847a.225.225 0 01.256-.095zM12.33 4.5c.095 0 .18.042.23.112l.028.058.008.055v1.003c0 .126-.12.225-.266.225a.275.275 0 01-.23-.112l-.028-.058-.008-.055V4.725c0-.127.12-.225.266-.225z" stroke="#131717" stroke-width=".2" fill="#131717" fill-rule="nonzero"/></svg>