<svg width="40" height="40" xmlns="http://www.w3.org/2000/svg" xmlns:xlink="http://www.w3.org/1999/xlink"><defs><path id="a" d="M0 0h40v40H0z"/><path d="M20.03.32c10.808.06 19.55 8.902 19.49 19.71-.06 10.808-8.902 19.55-19.709 19.49C9.003 39.46.26 30.618.321 19.811.38 9.003 9.221.26 20.028.321zm-.109 1.91c-9.77 0-17.69 7.92-17.69 17.69 0 9.77 7.92 17.69 17.69 17.69 9.77 0 17.69-7.92 17.69-17.69 0-9.77-7.92-17.69-17.69-17.69zM8.107 20.673a1.062 1.062 0 011.5.003l3.69 3.696 1.066-1.066 1.502 1.502-1.07 1.067.004.003-.75.75a1.062 1.062 0 01-1.502 0L8.1 22.18a1.062 1.062 0 01.003-1.504zm22.127-7.433a1.061 1.061 0 011.498-.002c.423.42.424 1.093.009 1.509l-11.272 11.27a1.062 1.062 0 01-1.502 0l-2.263-2.263-1.502-1.502-.684-.683a1.062 1.062 0 011.501-1.503l.685.683 1.506 1.502 1.508 1.505zm-5.61-.027a1.061 1.061 0 011.502 0l.088.1a1.062 1.062 0 01-.088 1.4L21.47 19.37l.002.002-2.19 2.184-1.505-1.502 2.194-2.194.003.003z" id="b"/></defs><g fill="none" fill-rule="evenodd"><use fill="#131717" xlink:href="#b"/></g></svg>