<svg width="24" height="24" xmlns="http://www.w3.org/2000/svg"><path d="M11.35 7.247c0-.645-.445-1.17-.993-1.17a.859.859 0 00-.34.073v-.743c0-.645-.487-1.17-1.087-1.17-.16 0-.312.04-.449.107-.067-.577-.52-1.026-1.075-1.026-.6 0-1.087.524-1.087 1.169v.22a1.005 1.005 0 00-.437-.101c-.6 0-1.087.524-1.087 1.169v3.32a1.326 1.326 0 00-.605-.145c-.688 0-1.227.513-1.227 1.169v3.46c0 1.065.702 1.996 1.322 2.818.451.6.879 1.165.879 1.598 0 1.155-.178 2.299-.18 2.31a.326.326 0 10.644.102 17.35 17.35 0 00.188-2.412c0-.65-.491-1.301-1.01-1.99-.586-.776-1.19-1.579-1.19-2.426v-3.46c0-.295.246-.517.574-.517.333 0 .605.231.605.517v1.996c0 .945.722 1.366 1.359 1.737.57.332 1.108.646 1.248 1.298a.326.326 0 10.637-.136c-.2-.935-.92-1.355-1.557-1.725-.641-.374-1.034-.631-1.034-1.174v-6.34c0-.285.194-.518.434-.518.241 0 .437.233.437.518v5.35h.652V4.488c0-.285.195-.517.435-.517s.436.232.436.517v6.639h.652V5.407c0-.285.196-.517.436-.517s.436.232.436.517v5.719h.652v-3.88c0-.275.158-.516.34-.516.16 0 .34.212.34.536l.357 6.117c.07 1.21-.236 2.184-.507 3.044-.182.578-.338 1.077-.338 1.537 0 1.056.18 2.239.188 2.288a.326.326 0 00.645-.1c-.002-.011-.181-1.184-.181-2.188 0-.36.143-.815.308-1.34.274-.869.613-1.95.536-3.279l-.357-6.098zm9.687 2.872v3.46c0 1.065-.702 1.996-1.321 2.818-.452.6-.88 1.165-.88 1.598 0 1.155.179 2.299.18 2.31a.326.326 0 11-.644.102c-.007-.05-.188-1.205-.188-2.412 0-.65.49-1.301 1.01-1.99.586-.776 1.19-1.579 1.19-2.426v-3.46c0-.295-.246-.517-.574-.517-.334 0-.605.231-.605.517v1.996c0 .945-.722 1.366-1.36 1.737-.57.332-1.107.646-1.247 1.298a.327.327 0 01-.638-.136c.2-.935.921-1.355 1.557-1.725.642-.374 1.035-.631 1.035-1.174v-6.34c0-.285-.195-.518-.435-.518s-.436.233-.436.518v5.35h-.652V4.488c0-.285-.195-.517-.435-.517s-.436.232-.436.517v6.639h-.652V5.407c0-.285-.196-.517-.436-.517s-.436.232-.436.517v5.719h-.652v-3.88c0-.275-.159-.516-.34-.516-.16 0-.34.212-.34.536l-.358 6.117c-.07 1.21.237 2.184.507 3.044.182.578.34 1.077.34 1.537 0 1.056-.182 2.239-.19 2.288a.326.326 0 01-.644-.1c.002-.011.181-1.184.181-2.188 0-.36-.143-.815-.308-1.34-.274-.869-.614-1.95-.536-3.279l.356-6.098c0-.645.445-1.17.992-1.17.12 0 .234.027.34.073v-.743c0-.645.488-1.17 1.088-1.17.16 0 .312.04.449.107.067-.577.52-1.026 1.075-1.026.6 0 1.087.524 1.087 1.169v.22c.134-.064.28-.101.436-.101.6 0 1.088.524 1.088 1.169v3.32c.18-.093.386-.145.605-.145.688 0 1.227.513 1.227 1.169z" fill="#131717" fill-rule="evenodd"/></svg>