<svg width="24" height="24" xmlns="http://www.w3.org/2000/svg"><path d="M18.997 8.652c.262 0 .467.178.467.408v5.028l1.262 3.203.02.105v2.11a.462.462 0 01-.461.461h-.397v.748a.285.285 0 01-.285.285h-1.384a.285.285 0 01-.285-.285v-1.5H5.813v1.5a.285.285 0 01-.286.285H4.143a.285.285 0 01-.284-.285v-.748H3.46A.462.462 0 013 19.506v-2.11l.02-.105 1.262-3.203V9.06c0-.23.205-.408.466-.408zm.32 9.029H4.428v2.75h.815V18.93c0-.157.128-.285.285-.285H18.22c.157 0 .284.128.284.285v1.5h.815v-2.75zm-6.85-4.366c-.53-.008-.656-.008-1.187 0-2.251.033-4.278.204-5.56.468-.911.188-.828.356-.861.393l-.012.03-.015.04-1.261 3.203v1.947h.288v-2c0-.158.127-.286.284-.286h15.46c.157 0 .284.128.284.286v2h.288V17.45l-.094-.24-1.164-2.956v-.002l-.019-.042a.503.503 0 01-.01-.033c-.034-.037.05-.205-.862-.393-1.282-.264-3.308-.435-5.56-.468zM18.28 9.22H5.465a.614.614 0 00-.613.613v3.689c.206-.09.19-.171.526-.248v-1.393c0-.42.356-.793 1.002-1.047.563-.221 1.305-.344 2.089-.344.785 0 1.527.123 2.09.344.646.254 1.002.627 1.002 1.047v.86c.35-.004.273-.004.624 0v-.86c0-.42.356-.793 1.002-1.047.564-.221 1.305-.344 2.09-.344.785 0 1.527.123 2.089.344.646.254 1.002.627 1.002 1.047v1.393c.337.077.32.159.525.248v-3.69a.613.613 0 00-.612-.612zM8.47 11.06c-.714 0-1.382.108-1.88.304-.473.187-.642.395-.642.517v1.278c1.259-.224 3.058-.371 5.044-.41v-.868c0-.122-.168-.33-.642-.517-.498-.196-1.165-.304-1.88-.304zm6.808 0c-.715 0-1.383.108-1.88.304-.474.187-.642.395-.642.517v.868c1.986.039 3.785.186 5.043.41v-1.278c0-.122-.168-.33-.64-.517-.498-.196-1.166-.304-1.88-.304zM11.873 3a.183.183 0 01.158.092l.594.576h1.312a.35.35 0 01.32.21.356.356 0 01.025.136v2.67a.342.342 0 01-.345.345H9.809a.347.347 0 01-.345-.346v-2.67a.342.342 0 01.345-.345h1.313l.593-.576A.181.181 0 0111.873 3zm2.064.828H9.809a.187.187 0 00-.185.186v2.67a.18.18 0 00.032.102c.02.03.048.054.081.067.022.01.046.016.072.016h4.128a.18.18 0 00.103-.033.18.18 0 00.081-.153v-2.67a.181.181 0 00-.112-.17.202.202 0 00-.072-.015zm-.137.242c.021 0 .043.008.057.024a.078.078 0 01.024.056v2.397c0 .02-.009.042-.024.056a.079.079 0 01-.057.024H9.945a.08.08 0 01-.08-.08V5.438 4.15a.08.08 0 01.08-.08zm-3.749 1.455h-.025v.941h1.91a1.342 1.342 0 00-.236-.357l-.018-.02a1.513 1.513 0 00-.365-.277 2.178 2.178 0 00-.485-.19 3.155 3.155 0 00-.78-.097zm3.669-.236c-.284.006-.55.037-.795.094a2.808 2.808 0 00-.645.232l-.018.01c-.173.092-.33.211-.466.352h.001l.01.012.011.011c.125.135.223.292.292.466h1.61zm0-1.058h-3.694v1.133h.025c.179 0 .489.015.821.104.194.05.368.12.522.204.104.058.2.122.285.195.148-.154.319-.284.508-.384l.02-.01c.205-.106.433-.188.681-.246.259-.06.538-.093.832-.099v-.897zm-2.233.329a.08.08 0 11.001.16.56.56 0 00-.188.033.341.341 0 00-.128.08.08.08 0 01-.106.006.407.407 0 00-.123-.061.559.559 0 00-.165-.025.08.08 0 010-.16c.076 0 .148.011.212.031.043.014.082.03.119.052a.522.522 0 01.135-.074.697.697 0 01.243-.042zm1.562-.155c.112 0 .203.094.196.207a.196.196 0 01-.391-.012c0-.108.087-.195.195-.195zM11.873 3.16c-.004 0-.007 0-.01.002a.017.017 0 00-.007.008l-.55.497h1.136l-.552-.497-.003-.004c-.007-.005-.01-.006-.014-.006z" fill="#131717" fill-rule="evenodd"/></svg>