<svg width="24" height="24" xmlns="http://www.w3.org/2000/svg" xmlns:xlink="http://www.w3.org/1999/xlink"><defs><path d="M14.356 10.868l.337.576-.035.02c-.512.3-1.113.747-1.07 1.182.105 1.043 3.303 2.136 5.64 2.934l.227.082c1.18.446 1.793 1.041 1.822 1.772.051 1.261-1.748 2.5-3.449 3.238l-.036.016-.267-.612.037-.016c2.129-.924 3.072-1.995 3.048-2.6-.024-.588-.883-1.004-1.599-1.248-3.478-1.189-5.95-2.136-6.087-3.5-.064-.641.393-1.238 1.397-1.824l.035-.02zm-2.302 2.103l.002.04c.04.807.886 1.727 2.66 2.897l.15.104c.57.418.83.878.77 1.368-.164 1.338-2.821 2.384-5.299 3.26l-.038.014-.222-.63.038-.013c1.415-.5 4.73-1.673 4.858-2.712.031-.259-.179-.539-.625-.833-1.993-1.315-2.906-2.37-2.96-3.421l-.001-.04.667-.034zM6.382 8.549c.13-.13.342-.13.472 0l3.63 3.622-.472.473-.258-.258.004 5.254h.906v.668l-8.076.006v-.668h.905l-.004-5.255-.258.258-.473-.472 1.529-1.53-.002-1.9.668-.001.001 1.232zm.237.708l-2.463 2.466.005 5.922 1.33-.001V15.58c0-.184.149-.334.333-.334l1.6-.002c.183 0 .333.15.333.334l.002 2.064 1.331-.001-.005-5.922L6.62 9.257zm.47 6.656h-.93v1.73h.932l-.001-1.73zm-.826-2.266v.667l-1.28.002v-.668l1.28-.001zm1.999-.002v.668h-1.28v-.667h1.28zM16.209 2.88l.294.544c.21.386 2.042 3.807 2.043 4.953a2.337 2.337 0 01-1.997 2.309l.002 2.528h-.668l-.002-2.528a2.337 2.337 0 01-2-2.306c-.002-.982 1.341-3.637 1.856-4.62l.11-.208.068-.128.294-.544zm3.2 1.98l.296.563c.168.32 1.64 3.148 1.64 4.103.002.954-.683 1.787-1.597 1.951l.002 1.735h-.669v-1.736a1.903 1.903 0 01-1.008-.524l-.029-.028.47-.475.028.028c.237.234.547.363.872.362.697 0 1.264-.589 1.264-1.312 0-.5-.675-2.026-1.267-3.213-.107.215-.21.429-.308.636l-.017.036-.604-.285.017-.036c.321-.68.603-1.219.614-1.242l.296-.564zM6.26 12.047l.001.668-1.28.001v-.668l1.28-.001zm2-.002v.668l-1.28.001v-.667l1.28-.002zm7.949-7.748c-.81 1.573-1.662 3.45-1.662 4.08.001.919.749 1.664 1.667 1.664.918-.001 1.664-.748 1.663-1.666 0-.63-.855-2.506-1.668-4.078zm-10.616.805c.666 0 1.266.291 1.65.8.404-.05.772.025 1.067.215.256.166.45.419.56.732l3.383-.002v.668l-3.914.003-.052-.271c-.05-.265-.165-.456-.34-.57-.196-.126-.474-.156-.784-.082l-.24.056-.125-.213c-.244-.419-.694-.668-1.205-.668-.336 0-1.434.104-1.442 1.42l-.001.331-1.572.001v-.667l.927-.001c.14-1.08.937-1.75 2.088-1.752zM9.59 3.102c.67 0 1.272.293 1.656.807.743-.066 1.329.275 1.613.94h.993v.667l-1.481.001-.07-.243c-.2-.706-.737-.758-1.153-.677l-.233.045-.12-.205c-.243-.418-.693-.668-1.204-.667-.337 0-1.434.103-1.442 1.419v.04l-.668-.004v-.04c.007-1.264.835-2.082 2.11-2.083z" id="a"/></defs><g fill="none" fill-rule="evenodd"><mask id="b" fill="#fff"><use xlink:href="#a"/></mask><use fill="#131717" xlink:href="#a"/><path fill="#131717" mask="url(#b)" d="M0 0h24v24H0z"/></g></svg>