<svg width="24" height="24" xmlns="http://www.w3.org/2000/svg"><g fill="none" fill-rule="evenodd"><path d="M0 0h24v24H0z"/><path d="M11.762 14.796a1.205 1.205 0 011.13.76l.025-.008.065-.004c.958.047 1.912.166 2.852.356.754.145 1.49.377 2.19.69.357.158.687.37.98.628.14.125.26.272.354.435.103.177.159.378.16.583a1.2 1.2 0 01-.194.643 2.084 2.084 0 01-.502.532c-.418.322-.99.593-1.688.82-1.392.456-3.285.73-5.375.73-.327 0-.651-.007-.973-.02a.282.282 0 01.024-.562c.312.013.628.02.95.02 1.09.003 2.18-.08 3.258-.248.98-.158 1.833-.384 2.49-.655.371-.142.719-.337 1.032-.58.12-.095.224-.209.308-.336a.632.632 0 00.109-.343.616.616 0 00-.088-.307 1.32 1.32 0 00-.295-.344c-.273-.236-.696-.471-1.237-.677-1.083-.414-2.63-.711-4.384-.804l.024.001c-.01.15-.05.295-.114.43-.254.536-.425 1.091-.425 1.661l.009-.243h1.025c.133 0 .244.093.274.217l.007.065a.281.281 0 01-.281.281h-3.424a.281.281 0 110-.563h.937v-.127a3.032 3.032 0 00-.234-1.086l-.094-.203a1.22 1.22 0 01-.114-.432c-.92.047-1.839.161-2.745.344a9.497 9.497 0 00-2.066.649 3.295 3.295 0 00-.836.53c-.097.087-.18.188-.246.3a.571.571 0 00-.047.515.9.9 0 00.132.226c.164.194.361.357.582.482.531.321 1.317.61 2.279.825a.281.281 0 01-.124.547 10.307 10.307 0 01-1.741-.537c-.494-.21-.903-.448-1.205-.724a1.678 1.678 0 01-.446-.617 1.14 1.14 0 01-.08-.41c.002-.205.058-.406.16-.583.11-.187.25-.354.417-.493.348-.3.824-.556 1.405-.778 1.163-.442 2.753-.743 4.554-.84a.281.281 0 01.097.013l.03-.072.067-.12a1.221 1.221 0 011.032-.567zm2.926 2.251l.065.003c.346.051.69.121 1.03.209.265.066.524.158.772.274.132.063.254.144.363.241.06.054.11.115.15.184a.554.554 0 01.023.51.685.685 0 01-.128.183 1.372 1.372 0 01-.373.266c-.371.174-.762.3-1.164.377-.952.207-2.243.331-3.67.331a22.08 22.08 0 01-2.155-.101 12.887 12.887 0 01-1.73-.279 5.048 5.048 0 01-.83-.27 1.962 1.962 0 01-.347-.196.833.833 0 01-.273-.312.536.536 0 01-.018-.422.63.63 0 01.089-.16c.074-.094.163-.175.265-.238.25-.15.521-.264.804-.339a.281.281 0 11.16.54 3.47 3.47 0 00-.486.179 1.021 1.021 0 00-.263.175.16.16 0 00-.038.049l.006-.011.007.01.015.018c.066.06.14.11.222.146.327.15.671.261 1.025.328.9.198 2.159.321 3.552.321.758.002 1.515-.036 2.268-.116a10.78 10.78 0 001.714-.309c.234-.06.46-.149.673-.264a.588.588 0 00.156-.123.063.063 0 00.014-.023l-.004.008-.023-.03-.03-.028a1.382 1.382 0 00-.357-.2c-.342-.14-.864-.271-1.501-.37a.286.286 0 01-.24-.323.281.281 0 01.322-.235zm-2.926-1.85a.82.82 0 00-.742 1.169c.23.454.355.953.367 1.462v.126h.658c.035-.482.171-.941.359-1.375l.098-.216a.804.804 0 00.065-.507l-.032-.114a.819.819 0 00-.773-.545zm-5.764-2.876l.093.117c.002.002.12.149.267.37.178.261.328.54.447.831.084.198.13.41.138.625l-.001-.001c.011.247-.065.487-.212.68l-.08.094a.938.938 0 01-1.303 0 1.055 1.055 0 01-.294-.773c.007-.215.054-.427.137-.626.081-.202.179-.398.293-.585.127-.214.268-.42.421-.616l.094-.116zm0 .395l-.03.042a5.914 5.914 0 00-.13.187c-.167.246-.31.509-.423.784-.072.17-.113.353-.12.538a.812.812 0 00.221.6c.27.26.695.26.965 0a.816.816 0 00.221-.6h.12l.081-.003h-.201a1.512 1.512 0 00-.069-.394l-.045-.125a3.631 3.631 0 00-.263-.536 5.45 5.45 0 00-.42-.617l.093.124zm-.062.613a.12.12 0 01.102.183l-.007.012a1.287 1.287 0 00-.105.224c-.07.177-.109.366-.113.557 0 .052.003.103.011.155a.122.122 0 11-.241.035 1.286 1.286 0 01-.014-.19c.004-.22.048-.438.128-.643a1.89 1.89 0 01.13-.277.136.136 0 01.109-.056zm5.863-.2l.1.013a.72.72 0 01.579.706l-.01.113a.718.718 0 11-.568-.82zm.184.496a.316.316 0 10.093.223l-.006-.062a.317.317 0 00-.087-.161zM9.795 6.237c0 .427-.246.643-.443.82-.185.16-.29.265-.29.475 0 .21.105.313.29.476.197.175.443.392.443.82 0 .427-.246.642-.443.818-.185.161-.29.266-.29.475 0 .21.105.313.29.476.197.175.443.392.443.82 0 .427-.246.642-.443.818-.186.167-.29.266-.29.475h-.458c0-.426.247-.643.445-.818.185-.161.288-.266.288-.475 0-.21-.103-.314-.288-.476-.198-.175-.445-.392-.445-.82 0-.427.247-.643.445-.819.185-.16.288-.265.288-.474 0-.21-.103-.314-.288-.477-.198-.174-.445-.392-.445-.819 0-.427.247-.643.445-.82.185-.16.288-.265.288-.475h.458zm5.12 0c0 .427-.248.643-.445.82-.184.16-.289.265-.289.475 0 .21.105.313.289.476.198.175.444.392.444.82 0 .427-.247.642-.444.818-.184.161-.289.266-.289.475 0 .21.105.313.289.476.197.175.444.392.444.82 0 .427-.247.642-.444.818-.184.167-.287.266-.287.475h-.46c0-.426.246-.643.444-.818.185-.161.29-.266.29-.475 0-.21-.105-.314-.29-.476-.198-.175-.444-.392-.444-.82 0-.427.246-.643.444-.819.185-.16.29-.265.29-.474 0-.21-.105-.314-.29-.477-.196-.174-.444-.392-.444-.819 0-.427.246-.643.444-.82.185-.16.29-.265.29-.475h.457zm2.383 3.272l.095.117c.002.002.12.148.268.37.176.26.325.538.444.83.083.198.13.41.137.624h-.24a1.527 1.527 0 00-.115-.52 3.722 3.722 0 00-.262-.536 5.663 5.663 0 00-.42-.617l.093.125-.03.041c-.019.027-.04.055-.061.087l-.069.1c-.167.247-.308.51-.422.785-.073.17-.114.353-.12.538a.815.815 0 00.221.6c.27.26.695.26.964 0a.818.818 0 00.222-.6h.12l.121-.002c.011.287-.095.566-.294.773a.936.936 0 01-1.303 0 1.054 1.054 0 01-.294-.772 1.76 1.76 0 01.137-.625c.082-.203.18-.399.292-.586.128-.214.269-.42.422-.616l.094-.116zm-.143.921a.12.12 0 01.1.188l-.001-.002.003.002-.007.011-.05.096a1.717 1.717 0 00-.167.686c0 .052.004.104.01.155a.122.122 0 11-.24.035 1.393 1.393 0 01-.013-.19 1.83 1.83 0 01.127-.643c.036-.095.08-.188.13-.277a.129.129 0 01.108-.06zM12.379 3c0 .427-.247.643-.445.819-.184.16-.288.266-.288.476 0 .21.104.312.288.473.198.175.445.392.445.82 0 .427-.247.642-.445.818-.184.161-.288.266-.288.475 0 .21.104.313.288.476.198.175.445.392.445.82 0 .427-.247.642-.445.818-.184.166-.288.273-.288.479h-.458c0-.427.246-.643.444-.82.184-.16.289-.264.289-.474 0-.21-.105-.314-.29-.476-.197-.175-.443-.392-.443-.82 0-.427.246-.642.444-.818.184-.161.289-.266.289-.475 0-.21-.105-.314-.29-.477-.197-.174-.443-.392-.443-.819 0-.426.246-.643.444-.82.184-.16.289-.264.289-.475h.458z" fill="#131717" fill-rule="nonzero"/></g></svg>